<mxfile host="Electron" modified="2024-07-05T10:43:08.280Z" agent="Mozilla/5.0 (Windows NT 10.0; Win64; x64) AppleWebKit/537.36 (KHTML, like Gecko) draw.io/24.6.4 Chrome/124.0.6367.207 Electron/30.0.6 Safari/537.36" etag="ildFyJVIeTjfhghNiDIm" version="24.6.4" type="device">
  <diagram name="第 1 页" id="xuWkZpnoXUbGH3Q3DTm7">
    <mxGraphModel dx="1050" dy="629" grid="1" gridSize="10" guides="1" tooltips="1" connect="1" arrows="1" fold="1" page="1" pageScale="1" pageWidth="827" pageHeight="583" math="0" shadow="0">
      <root>
        <mxCell id="0" />
        <mxCell id="1" parent="0" />
        <mxCell id="JUTLySqUZixeqamiHcbM-3" style="edgeStyle=orthogonalEdgeStyle;rounded=0;orthogonalLoop=1;jettySize=auto;html=1;exitX=1;exitY=0.5;exitDx=0;exitDy=0;entryX=0;entryY=0.5;entryDx=0;entryDy=0;" parent="1" source="JUTLySqUZixeqamiHcbM-1" target="JUTLySqUZixeqamiHcbM-2" edge="1">
          <mxGeometry relative="1" as="geometry" />
        </mxCell>
        <mxCell id="JUTLySqUZixeqamiHcbM-1" value="&lt;font style=&quot;font-size: 24px;&quot;&gt;x&lt;sup&gt;n&lt;/sup&gt;&lt;/font&gt;" style="rounded=0;whiteSpace=wrap;html=1;fillColor=#dae8fc;strokeColor=#6c8ebf;" parent="1" vertex="1">
          <mxGeometry x="240" y="130" width="50" height="70" as="geometry" />
        </mxCell>
        <mxCell id="JUTLySqUZixeqamiHcbM-5" style="edgeStyle=orthogonalEdgeStyle;rounded=0;orthogonalLoop=1;jettySize=auto;html=1;exitX=1;exitY=0.5;exitDx=0;exitDy=0;entryX=0;entryY=0.5;entryDx=0;entryDy=0;" parent="1" source="JUTLySqUZixeqamiHcbM-2" target="JUTLySqUZixeqamiHcbM-4" edge="1">
          <mxGeometry relative="1" as="geometry" />
        </mxCell>
        <mxCell id="JUTLySqUZixeqamiHcbM-2" value="&lt;font style=&quot;font-size: 24px;&quot;&gt;NN&lt;/font&gt;&lt;div style=&quot;font-size: 24px;&quot;&gt;&lt;font style=&quot;font-size: 24px;&quot;&gt;θ&lt;/font&gt;&lt;/div&gt;" style="rounded=0;whiteSpace=wrap;html=1;fillColor=#d5e8d4;strokeColor=#82b366;" parent="1" vertex="1">
          <mxGeometry x="320" y="130" width="130" height="70" as="geometry" />
        </mxCell>
        <mxCell id="JUTLySqUZixeqamiHcbM-7" style="edgeStyle=orthogonalEdgeStyle;rounded=0;orthogonalLoop=1;jettySize=auto;html=1;exitX=1;exitY=0.5;exitDx=0;exitDy=0;entryX=0;entryY=0.5;entryDx=0;entryDy=0;startArrow=classic;startFill=1;" parent="1" source="JUTLySqUZixeqamiHcbM-4" target="JUTLySqUZixeqamiHcbM-6" edge="1">
          <mxGeometry relative="1" as="geometry" />
        </mxCell>
        <mxCell id="JUTLySqUZixeqamiHcbM-4" value="&lt;font style=&quot;font-size: 24px;&quot;&gt;y&lt;sup&gt;n&lt;/sup&gt;&lt;/font&gt;" style="rounded=0;whiteSpace=wrap;html=1;fillColor=#fff2cc;strokeColor=#d6b656;" parent="1" vertex="1">
          <mxGeometry x="480" y="130" width="50" height="70" as="geometry" />
        </mxCell>
        <mxCell id="JUTLySqUZixeqamiHcbM-6" value="&lt;span style=&quot;color: rgb(52, 52, 52); font-family: &amp;quot;Noto Sans TC&amp;quot;, 微軟正黑體, sans-serif; font-size: 24px; letter-spacing: 1px; text-align: start; text-indent: 32px;&quot;&gt;ŷ&lt;/span&gt;&lt;span style=&quot;color: rgb(52, 52, 52); font-family: &amp;quot;Noto Sans TC&amp;quot;, 微軟正黑體, sans-serif; letter-spacing: 1px; text-align: start; text-indent: 32px; font-size: 20px;&quot;&gt;&lt;sup style=&quot;&quot;&gt;n&lt;/sup&gt;&lt;/span&gt;" style="rounded=0;whiteSpace=wrap;html=1;fillColor=#ffe6cc;strokeColor=#d79b00;" parent="1" vertex="1">
          <mxGeometry x="610" y="130" width="50" height="70" as="geometry" />
        </mxCell>
        <mxCell id="JUTLySqUZixeqamiHcbM-8" value="&lt;font style=&quot;font-size: 24px;&quot;&gt;C&lt;sup&gt;n&lt;/sup&gt;&lt;/font&gt;" style="text;html=1;align=center;verticalAlign=middle;whiteSpace=wrap;rounded=0;" parent="1" vertex="1">
          <mxGeometry x="540" y="120" width="60" height="30" as="geometry" />
        </mxCell>
      </root>
    </mxGraphModel>
  </diagram>
</mxfile>
